<?xml version="1.0" encoding="UTF-8" standalone="no"?>
<!-- Generator: Adobe Illustrator 23.0.3, SVG Export Plug-In . SVG Version: 6.00 Build 0)  -->

<svg
   xmlns:dc="http://purl.org/dc/elements/1.1/"
   xmlns:cc="http://creativecommons.org/ns#"
   xmlns:rdf="http://www.w3.org/1999/02/22-rdf-syntax-ns#"
   xmlns:svg="http://www.w3.org/2000/svg"
   xmlns="http://www.w3.org/2000/svg"
   xmlns:xlink="http://www.w3.org/1999/xlink"
   xmlns:sodipodi="http://sodipodi.sourceforge.net/DTD/sodipodi-0.dtd"
   xmlns:inkscape="http://www.inkscape.org/namespaces/inkscape"
   version="1.1"
   x="0px"
   y="0px"
   viewBox="0 0 128 128"
   xml:space="preserve"
   id="svg5265"
   sodipodi:docname="unlauncher.svg"
   inkscape:version="0.92.4 (f8dce91, 2019-08-02)"
   width="128"
   height="128"><metadata
   id="metadata5271"><rdf:RDF><cc:Work
       rdf:about=""><dc:format>image/svg+xml</dc:format><dc:type
         rdf:resource="http://purl.org/dc/dcmitype/StillImage" /><dc:title></dc:title></cc:Work></rdf:RDF></metadata><defs
   id="defs5269"><clipPath
     clipPathUnits="userSpaceOnUse"
     id="clipPath5420"><use
       x="0"
       y="0"
       xlink:href="#g5416"
       id="use5422"
       width="100%"
       height="100%" /></clipPath></defs><sodipodi:namedview
   pagecolor="#ffffff"
   bordercolor="#666666"
   borderopacity="1"
   objecttolerance="10"
   gridtolerance="10"
   guidetolerance="10"
   inkscape:pageopacity="0"
   inkscape:pageshadow="2"
   inkscape:window-width="1862"
   inkscape:window-height="1016"
   id="namedview5267"
   showgrid="false"
   showguides="true"
   inkscape:guide-bbox="true"
   inkscape:zoom="4.19"
   inkscape:cx="35.449731"
   inkscape:cy="39.60143"
   inkscape:window-x="58"
   inkscape:window-y="27"
   inkscape:window-maximized="1"
   inkscape:current-layer="CucumberForge" />
<style
   type="text/css"
   id="style4932">
	.st0{fill:#80C7EE;}
	.st1{fill:#047CC0;}
	.st2{fill:#F1F1F2;stroke:url(#SVGID_1_);stroke-width:18;stroke-miterlimit:10;}
	.st3{fill:#F1F1F2;stroke:url(#SVGID_2_);stroke-width:18;stroke-miterlimit:10;}
	.st4{fill:#F1F1F2;stroke:url(#SVGID_3_);stroke-width:18;stroke-miterlimit:10;}
	.st5{fill:#F1F1F2;stroke:url(#SVGID_4_);stroke-width:18;stroke-miterlimit:10;}
	.st6{fill:#F1F1F2;stroke:url(#SVGID_5_);stroke-width:18;stroke-miterlimit:10;}
	.st7{fill:#F1F1F2;stroke:url(#SVGID_6_);stroke-width:18;stroke-miterlimit:10;}
	.st8{fill:#F1F1F2;stroke:url(#SVGID_7_);stroke-width:18;stroke-miterlimit:10;}
	.st9{fill:#F1F1F2;stroke:url(#SVGID_8_);stroke-width:18;stroke-miterlimit:10;}
	.st10{fill:#F1F1F2;stroke:url(#SVGID_9_);stroke-width:18;stroke-miterlimit:10;}
	.st11{fill:#FAAF66;}
	.st12{fill:#EB6124;}
	.st13{fill:#F1F1F2;stroke:#EB6124;stroke-width:18;stroke-linecap:square;stroke-miterlimit:10;}
	.st14{fill:#BB86BB;}
	.st15{fill:#F1F1F2;stroke:#782B8B;stroke-width:18;stroke-miterlimit:10;}
	.st16{fill:#782B8B;}
	.st17{fill:#8FA2B0;}
	.st18{fill:#5B6770;}
	.st19{fill:#F1F1F2;stroke:#5B6770;stroke-width:18;stroke-miterlimit:10;}
	.st20{fill:#F1F1F2;stroke:#5B6770;stroke-width:17.9365;stroke-miterlimit:10;}
	.st21{fill:#F1F1F2;stroke:#5B6770;stroke-width:17.9375;stroke-miterlimit:10;}
	.st22{fill:none;stroke:#5B6770;stroke-width:18;stroke-miterlimit:10;}
	.st23{fill:#F1F1F2;}
	.st24{fill:#A4D183;}
	.st25{fill:#5C9A43;}
	.st26{fill:#F05B62;}
	.st27{fill:#A91E23;}
	.st28{fill:#F1F1F2;stroke:#A91E23;stroke-width:18;stroke-linecap:round;stroke-linejoin:round;stroke-miterlimit:10;}
	.st29{fill:none;stroke:#A91E23;stroke-width:18.7984;stroke-linecap:round;stroke-miterlimit:10;}
	.st30{fill:#F1F1F2;stroke:url(#SVGID_10_);stroke-width:18;stroke-miterlimit:10;}
	.st31{fill:none;stroke:#231F20;stroke-width:9.2291;stroke-miterlimit:10;}
	.st32{fill:url(#SVGID_11_);}
	.st33{fill:url(#SVGID_12_);}
	.st34{fill:none;}
	.st35{fill:#F1F1F2;stroke:url(#SVGID_13_);stroke-width:18;stroke-miterlimit:10;}
	.st36{fill:url(#SVGID_14_);}
	.st37{display:none;}
	.st38{display:inline;}
	.st39{display:inline;fill:#A4D183;}
	.st40{display:inline;fill:#5C9A43;}
	.st41{display:inline;fill:#F1F1F2;}
	.st42{display:inline;fill:#F1F1F2;stroke:#5C9A43;stroke-width:20;stroke-linecap:round;stroke-linejoin:round;}
	.st43{display:inline;fill:none;stroke:#5C9A43;stroke-width:20;stroke-linecap:round;stroke-linejoin:round;}
	.st44{display:inline;fill:#F1F1F2;fill-opacity:0.5;}
	.st45{fill:#FFFFFF;}
	.st46{display:inline;fill:#F1F1F2;fill-opacity:0.5;stroke:#5C9A43;stroke-width:20;stroke-linecap:round;stroke-linejoin:round;}
	.st47{fill:none;stroke:#5C9A43;stroke-width:20;stroke-linecap:round;stroke-linejoin:round;}
	.st48{fill:none;stroke:#5C9A43;stroke-width:1.96;stroke-linecap:round;stroke-linejoin:round;}
	.st49{fill:#F1F1F2;stroke:#EB6124;stroke-width:18;stroke-miterlimit:10;}
	.st50{fill:none;stroke:#EB6124;stroke-width:18;stroke-miterlimit:10;}
	.st51{fill:none;stroke:#EB6124;stroke-width:18;stroke-miterlimit:10;stroke-dasharray:82.7773,27.5924;}
	.st52{fill:none;stroke:#EB6124;stroke-width:18;stroke-miterlimit:10;stroke-dasharray:68.2487,22.7496;}
	.st53{fill:#F1F1F2;stroke:url(#SVGID_15_);stroke-width:18;stroke-miterlimit:10;}
	.st54{fill:url(#SVGID_16_);}
	.st55{fill:url(#SVGID_17_);}
	.st56{fill:#F1F1F2;stroke:url(#SVGID_18_);stroke-width:18;stroke-miterlimit:10;}
	.st57{fill:url(#SVGID_19_);}
	.st58{fill:#F1F1F2;stroke:#A91E23;stroke-width:14.0021;stroke-linecap:round;stroke-linejoin:round;stroke-miterlimit:10;}
	.st59{fill:none;stroke:#A91E23;stroke-width:18;stroke-linecap:round;stroke-miterlimit:10;}
	.st60{fill:#F1F1F2;stroke:url(#SVGID_20_);stroke-width:18;stroke-miterlimit:10;}
	.st61{fill:#F1F1F2;stroke:#5C9A43;stroke-width:18;stroke-linecap:round;stroke-linejoin:round;stroke-miterlimit:10;}
	.st62{fill:#F1F1F2;stroke:url(#SVGID_21_);stroke-width:18;stroke-miterlimit:10;}
	.st63{fill:url(#SVGID_22_);}
	.st64{fill:url(#SVGID_23_);}
	.st65{fill:#F1F1F2;stroke:url(#SVGID_24_);stroke-width:18;stroke-miterlimit:10;}
	.st66{fill:url(#SVGID_25_);}
	.st67{fill:#F1F1F2;stroke:url(#SVGID_26_);stroke-width:18;stroke-miterlimit:10;}
	.st68{fill:#F1F1F2;stroke:#5B6770;stroke-width:18;stroke-linecap:round;stroke-linejoin:round;stroke-miterlimit:10;}
</style>
<symbol
   id="Beadledom_1_"
   viewBox="0 -1000 890 1000"
   transform="translate(-4.47,26.679)">
	<path
   class="st0"
   d="m 445,-981 c -12,0 -23.8,3.2 -34.1,9.1 L 53.2,-765.5 C 32.1,-753.3 19,-730.7 19,-706.4 v 412.8 c 0,24.3 13.1,46.9 34.1,59.1 l 357.8,206.3 c 10.4,6 22.2,9.1 34.1,9.1 12,0 23.8,-3.2 34.1,-9.1 l 357.7,-206.4 c 21.1,-12.1 34.1,-34.8 34.1,-59.1 v -412.8 c 0,-24.3 -13.1,-46.9 -34.1,-59.1 L 479.1,-971.8 c -10.3,-6 -22.1,-9.2 -34.1,-9.2 z"
   id="path4934"
   inkscape:connector-curvature="0"
   style="fill:#80c7ee" />
	<path
   class="st1"
   d="m 445,-38 c 8.5,0 17,-2.2 24.6,-6.6 L 827.3,-251 c 15.2,-8.8 24.6,-25 24.6,-42.6 v -412.8 c 0,-17.6 -9.4,-33.8 -24.6,-42.6 L 469.6,-955.4 c -7.6,-4.4 -16.1,-6.6 -24.6,-6.6 -8.5,0 -17,2.2 -24.6,6.6 L 62.7,-749 c -15.3,8.8 -24.7,25 -24.7,42.6 v 412.8 c 0,17.6 9.4,33.8 24.6,42.6 l 357.8,206.4 c 7.6,4.4 16.1,6.6 24.6,6.6 m 0,38 C 429.7,0 414.6,-4 401.4,-11.7 L 43.6,-218.1 C 16.7,-233.6 0,-262.5 0,-293.6 v -412.8 c 0,-31.1 16.7,-60 43.6,-75.5 l 357.7,-206.4 c 13.3,-7.6 28.3,-11.7 43.6,-11.7 15.3,0 30.4,4 43.6,11.7 l 357.7,206.4 c 26.9,15.5 43.6,44.5 43.6,75.5 v 412.8 c 0,31.1 -16.7,60 -43.6,75.5 L 488.6,-11.7 C 475.4,-4 460.3,0 445,0 Z"
   id="path4936"
   inkscape:connector-curvature="0"
   style="fill:#047cc0" />
	<g
   id="g4967">
		
			<pattern
   id="SVGID_1_"
   xlink:href="#New_Pattern_Swatch_3"
   patternTransform="matrix(2.8093 -1.6684 0.9445 1.5904 21911.5801 -8299.0635)">
		</pattern>
		<circle
   class="st2"
   cx="584.40002"
   cy="-720.09998"
   r="48.799999"
   id="circle4939"
   style="fill:#f1f1f2;stroke:url(#SVGID_1_);stroke-width:18;stroke-miterlimit:10" />
		
			<pattern
   id="SVGID_2_"
   xlink:href="#New_Pattern_Swatch_3"
   patternTransform="matrix(1.3217 -0.7849 3.9696 6.684 35593.1367 40906.0195)">
		</pattern>
		<polygon
   class="st3"
   points="355.7,-378.4 393.9,-355.8 479.2,-499.4 441,-522 "
   id="polygon4942"
   style="fill:#f1f1f2;stroke:url(#SVGID_2_);stroke-width:18;stroke-miterlimit:10" />
		
			<pattern
   id="SVGID_3_"
   xlink:href="#New_Pattern_Swatch_3"
   patternTransform="matrix(1.8147 -1.0777 4.1799 7.038 41179.7227 41655.543)">
		</pattern>
		<polygon
   class="st4"
   points="447.7,-549.6 500.1,-518.5 589.9,-669.7 537.5,-700.8 "
   id="polygon4945"
   style="fill:#f1f1f2;stroke:url(#SVGID_3_);stroke-width:18;stroke-miterlimit:10" />
		
			<pattern
   id="SVGID_4_"
   xlink:href="#New_Pattern_Swatch_3"
   patternTransform="matrix(2.8093 -1.6684 0.9445 1.5904 21909.5508 -8301.375)">
		</pattern>
		<polygon
   class="st5"
   points="418.2,-532.6 499.4,-484.5 519.7,-518.6 438.5,-566.8 "
   id="polygon4948"
   style="fill:#f1f1f2;stroke:url(#SVGID_4_);stroke-width:18;stroke-miterlimit:10" />
		<g
   id="g4965">
			
				<pattern
   id="SVGID_5_"
   xlink:href="#New_Pattern_Swatch_3"
   patternTransform="matrix(1.7598 -1.0452 2.6416 4.4478 27895.9824 20356.1191)">
			</pattern>
			<polygon
   class="st6"
   points="221.3,-324.9 262.6,-300.4 324.6,-404.8 283.3,-429.3 "
   id="polygon4951"
   style="fill:#f1f1f2;stroke:url(#SVGID_5_);stroke-width:18;stroke-miterlimit:10" />
			
				<pattern
   id="SVGID_6_"
   xlink:href="#New_Pattern_Swatch_3"
   patternTransform="matrix(1.7598 -1.0452 2.6416 4.4478 27906.4102 20349.9258)">
			</pattern>
			<polygon
   class="st7"
   points="370.3,-236.4 411.6,-211.9 473.6,-316.3 432.3,-340.8 "
   id="polygon4954"
   style="fill:#f1f1f2;stroke:url(#SVGID_6_);stroke-width:18;stroke-miterlimit:10" />
			
				<pattern
   id="SVGID_7_"
   xlink:href="#New_Pattern_Swatch_3"
   patternTransform="matrix(5.3531 -3.1792 3.177 5.3494 60136.207 11358.7891)">
			</pattern>
			<polygon
   class="st8"
   points="247.2,-295.2 372.7,-220.7 447.3,-346.2 321.7,-420.7 "
   id="polygon4957"
   style="fill:#f1f1f2;stroke:url(#SVGID_7_);stroke-width:18;stroke-miterlimit:10" />
			
				<pattern
   id="SVGID_8_"
   xlink:href="#New_Pattern_Swatch_3"
   patternTransform="matrix(1.4587 -0.8663 3.9696 6.684 36645.6992 40280.9062)">
			</pattern>
			<path
   class="st9"
   d="m 292.2,-459.5 -5.9,-3.5 c -7.8,-4.6 -17.9,-2.1 -22.6,5.8 l -76.3,128.5 c -4.6,7.8 -2.1,17.9 5.8,22.6 l 5.9,3.5 c 7.8,4.6 17.9,2.1 22.6,-5.8 L 298,-436.9 c 4.6,-7.8 2,-17.9 -5.8,-22.6 z"
   id="path4960"
   inkscape:connector-curvature="0"
   style="fill:#f1f1f2;stroke:url(#SVGID_8_);stroke-width:18;stroke-miterlimit:10" />
			
				<pattern
   id="SVGID_9_"
   xlink:href="#New_Pattern_Swatch_3"
   patternTransform="matrix(1.4587 -0.8663 3.9696 6.684 36651.5938 40277.4062)">
			</pattern>
			<path
   class="st10"
   d="m 501.3,-335.3 -5.9,-3.5 c -7.8,-4.6 -17.9,-2.1 -22.6,5.8 l -76.3,128.5 c -4.6,7.8 -2.1,17.9 5.8,22.6 l 5.9,3.5 c 7.8,4.6 17.9,2.1 22.6,-5.8 l 76.3,-128.5 c 4.6,-7.8 2.1,-17.9 -5.8,-22.6 z"
   id="path4963"
   inkscape:connector-curvature="0"
   style="fill:#f1f1f2;stroke:url(#SVGID_9_);stroke-width:18;stroke-miterlimit:10" />
		</g>
	</g>
</symbol>
<symbol
   id="Bunson"
   viewBox="0 -1000 890 1000"
   transform="translate(-4.47,26.679)">
	<g
   id="g4978">
		<g
   id="g4976">
			<g
   id="g4974">
				<path
   class="st11"
   d="m 445,-981 c -12,0 -23.8,3.2 -34.1,9.1 L 53.2,-765.5 C 32.1,-753.3 19,-730.7 19,-706.4 v 412.8 c 0,24.3 13.1,46.9 34.1,59.1 l 357.8,206.3 c 10.4,6 22.2,9.1 34.1,9.1 12,0 23.8,-3.2 34.1,-9.1 l 357.7,-206.4 c 21.1,-12.1 34.1,-34.8 34.1,-59.1 v -412.8 c 0,-24.3 -13.1,-46.9 -34.1,-59.1 L 479.1,-971.8 c -10.3,-6 -22.1,-9.2 -34.1,-9.2 z"
   id="path4970"
   inkscape:connector-curvature="0"
   style="fill:#faaf66" />
				<path
   class="st12"
   d="m 445,-38 c 8.5,0 17,-2.2 24.6,-6.6 L 827.3,-251 c 15.2,-8.8 24.6,-25 24.6,-42.6 v -412.8 c 0,-17.6 -9.4,-33.8 -24.6,-42.6 L 469.6,-955.4 c -7.6,-4.4 -16.1,-6.6 -24.6,-6.6 -8.5,0 -17,2.2 -24.6,6.6 L 62.7,-749 c -15.3,8.8 -24.7,25 -24.7,42.6 v 412.8 c 0,17.6 9.4,33.8 24.6,42.6 l 357.8,206.4 c 7.6,4.4 16.1,6.6 24.6,6.6 m 0,38 C 429.7,0 414.6,-4 401.4,-11.7 L 43.6,-218.1 C 16.7,-233.6 0,-262.5 0,-293.6 v -412.8 c 0,-31.1 16.7,-60 43.6,-75.5 l 357.7,-206.4 c 13.3,-7.6 28.3,-11.7 43.6,-11.7 15.3,0 30.4,4 43.6,11.7 l 357.7,206.4 c 26.9,15.5 43.6,44.5 43.6,75.5 v 412.8 c 0,31.1 -16.7,60 -43.6,75.5 L 488.6,-11.7 C 475.4,-4 460.3,0 445,0 Z"
   id="path4972"
   inkscape:connector-curvature="0"
   style="fill:#eb6124" />
			</g>
		</g>
	</g>
	<path
   class="st13"
   d="m 445,-167.6 c 0,0 -124.6,-297.3 -124.6,-444.4 0,-89.6 30.7,-179.4 74.7,-219.7 -10.2,23.2 -16.4,52.5 -16.4,81.8 0,78.2 66.2,236.2 66.2,236.2 0,0 66.2,-163 66.2,-236.2 0,-30.6 -6,-59.8 -16,-82.5 43.8,38.8 74.4,125.9 74.4,220.5 0.1,137.6 -124.5,444.3 -124.5,444.3 z"
   id="path4980"
   inkscape:connector-curvature="0"
   style="fill:#f1f1f2;stroke:#eb6124;stroke-width:18;stroke-linecap:square;stroke-miterlimit:10" />
</symbol>
<symbol
   id="Canadarm_1_"
   viewBox="0 -1000 890 1000"
   transform="translate(-4.47,26.679)">
	<path
   class="st14"
   d="m 445,-981 c -12,0 -23.8,3.2 -34.1,9.1 L 53.2,-765.5 C 32.1,-753.3 19,-730.7 19,-706.4 v 412.8 c 0,24.3 13.1,46.9 34.1,59.1 l 357.8,206.3 c 10.4,6 22.2,9.1 34.1,9.1 12,0 23.8,-3.2 34.1,-9.1 l 357.7,-206.4 c 21.1,-12.1 34.1,-34.8 34.1,-59.1 v -412.8 c 0,-24.3 -13.1,-46.9 -34.1,-59.1 L 479.1,-971.8 c -10.3,-6 -22.1,-9.2 -34.1,-9.2 z"
   id="path4983"
   inkscape:connector-curvature="0"
   style="fill:#bb86bb" />
	<g
   id="g4997">
		<polygon
   class="st15"
   points="419.4,-596.5 332.7,-736.8 595.4,-900.9 757.2,-807.6 "
   id="polygon4985"
   style="fill:#f1f1f2;stroke:#782b8b;stroke-width:18;stroke-miterlimit:10" />
		<path
   class="st15"
   d="m 649.5,-290 9.5,-40.8 c 5.2,-22.6 -8.9,-45.2 -31.5,-50.4 L 500.2,-410.6 470.9,-284 c -5.2,22.6 8.9,45.2 31.5,50.4 l 40.9,9.5 c 15.4,3.6 25,19 21.5,34.4 v 0 c -3.6,15.4 -19,25 -34.4,21.5 l -40.4,-9.4 c -26.6,-6.1 -49.7,-22.4 -64.4,-45.3 v 0 c -15.1,-23.5 -20.1,-52 -14,-79.3 l 15.6,-69.4 140.8,-87.5 67.9,16.2 c 13.8,3.3 27.1,8.9 38.5,17.3 35.1,25.8 49.6,68.5 40.4,108.1 l -9.4,40.4 c -3.6,15.4 -19,25 -34.4,21.5 v 0 c -15.5,-3.6 -25.1,-19 -21.5,-34.4 z"
   id="path4987"
   inkscape:connector-curvature="0"
   style="fill:#f1f1f2;stroke:#782b8b;stroke-width:18;stroke-miterlimit:10" />
		<polygon
   class="st15"
   points="253.1,-651.5 393.5,-738.1 568.3,-458.9 427.7,-372.5 "
   id="polygon4989"
   style="fill:#f1f1f2;stroke:#782b8b;stroke-width:18;stroke-miterlimit:10" />
		<circle
   class="st15"
   cx="349"
   cy="-651.40002"
   id="ellipse4991"
   r="114.9"
   style="fill:#f1f1f2;stroke:#782b8b;stroke-width:18;stroke-miterlimit:10" />
		<ellipse
   class="st15"
   cx="349"
   cy="-651.40002"
   rx="55.900002"
   ry="55.799999"
   id="ellipse4993"
   style="fill:#f1f1f2;stroke:#782b8b;stroke-width:18;stroke-miterlimit:10" />
		<path
   class="st15"
   d="m 376.4,-340.5 v 0 c -12.2,-19.4 -6.3,-45.1 13.2,-57.1 l 173.9,-107.8 c 19.4,-12 44.8,-6.1 57,13.1 v 0 c 12.3,19.5 6.3,45.2 -13.3,57.3 l -174,107.6 c -19.4,11.9 -44.7,6.1 -56.8,-13.1 z"
   id="path4995"
   inkscape:connector-curvature="0"
   style="fill:#f1f1f2;stroke:#782b8b;stroke-width:18;stroke-miterlimit:10" />
	</g>
	<path
   class="st16"
   d="m 445,-38 c 8.5,0 17,-2.2 24.6,-6.6 L 827.3,-251 c 15.2,-8.8 24.6,-25 24.6,-42.6 v -412.8 c 0,-17.6 -9.4,-33.8 -24.6,-42.6 L 469.6,-955.4 c -7.6,-4.4 -16.1,-6.6 -24.6,-6.6 -8.5,0 -17,2.2 -24.6,6.6 L 62.7,-749 c -15.3,8.8 -24.7,25 -24.7,42.6 v 412.8 c 0,17.6 9.4,33.8 24.6,42.6 l 357.8,206.4 c 7.6,4.4 16.1,6.6 24.6,6.6 m 0,38 C 429.7,0 414.6,-4 401.4,-11.7 L 43.6,-218.1 C 16.7,-233.6 0,-262.5 0,-293.6 v -412.8 c 0,-31.1 16.7,-60 43.6,-75.5 l 357.7,-206.4 c 13.3,-7.6 28.3,-11.7 43.6,-11.7 15.3,0 30.4,4 43.6,11.7 l 357.7,206.4 c 26.9,15.5 43.6,44.5 43.6,75.5 v 412.8 c 0,31.1 -16.7,60 -43.6,75.5 L 488.6,-11.7 C 475.4,-4 460.3,0 445,0 Z"
   id="path4999"
   inkscape:connector-curvature="0"
   style="fill:#782b8b" />
</symbol>
<symbol
   id="Carbon_1_"
   viewBox="0 -1000 890 1000"
   transform="translate(-4.47,26.679)">
	<path
   class="st17"
   d="m 445,-981 c -12,0 -23.8,3.2 -34.1,9.1 L 53.2,-765.5 C 32.1,-753.3 19,-730.7 19,-706.4 v 412.8 c 0,24.3 13.1,46.9 34.1,59.1 l 357.8,206.3 c 10.4,6 22.2,9.1 34.1,9.1 12,0 23.8,-3.2 34.1,-9.1 l 357.7,-206.4 c 21.1,-12.1 34.1,-34.8 34.1,-59.1 v -412.8 c 0,-24.3 -13.1,-46.9 -34.1,-59.1 L 479.1,-971.8 c -10.3,-6 -22.1,-9.2 -34.1,-9.2 z"
   id="path5002"
   inkscape:connector-curvature="0"
   style="fill:#8fa2b0" />
	<path
   class="st18"
   d="m 445,-38 c 8.5,0 17,-2.2 24.6,-6.6 L 827.3,-251 c 15.2,-8.8 24.6,-25 24.6,-42.6 v -412.8 c 0,-17.6 -9.4,-33.8 -24.6,-42.6 L 469.6,-955.4 c -7.6,-4.4 -16.1,-6.6 -24.6,-6.6 -8.5,0 -17,2.2 -24.6,6.6 L 62.7,-749 c -15.3,8.8 -24.7,25 -24.7,42.6 v 412.8 c 0,17.6 9.4,33.8 24.6,42.6 l 357.8,206.4 c 7.6,4.4 16.1,6.6 24.6,6.6 m 0,38 C 429.7,0 414.6,-4 401.4,-11.7 L 43.6,-218.1 C 16.7,-233.6 0,-262.5 0,-293.6 v -412.8 c 0,-31.1 16.7,-60 43.6,-75.5 l 357.7,-206.4 c 13.3,-7.6 28.3,-11.7 43.6,-11.7 15.3,0 30.4,4 43.6,11.7 l 357.7,206.4 c 26.9,15.5 43.6,44.5 43.6,75.5 v 412.8 c 0,31.1 -16.7,60 -43.6,75.5 L 488.6,-11.7 C 475.4,-4 460.3,0 445,0 Z"
   id="path5004"
   inkscape:connector-curvature="0"
   style="fill:#5b6770" />
	<g
   id="g5010">
		<rect
   x="367"
   y="-707"
   class="st19"
   width="138"
   height="332"
   id="rect5006"
   style="fill:#f1f1f2;stroke:#5b6770;stroke-width:18;stroke-miterlimit:10" />
		<circle
   class="st18"
   cx="436"
   cy="-482"
   r="30"
   id="circle5008"
   style="fill:#5b6770" />
	</g>
	<g
   id="g5016">
		<rect
   x="556"
   y="-707"
   class="st20"
   width="138"
   height="423"
   id="rect5012"
   style="fill:#f1f1f2;stroke:#5b6770;stroke-width:17.93650055;stroke-miterlimit:10" />
		<circle
   class="st18"
   cx="625"
   cy="-554"
   r="30"
   id="circle5014"
   style="fill:#5b6770" />
	</g>
	<g
   id="g5022">
		<rect
   x="178"
   y="-707"
   class="st21"
   width="138"
   height="213"
   id="rect5018"
   style="fill:#f1f1f2;stroke:#5b6770;stroke-width:17.9375;stroke-miterlimit:10" />
		<circle
   class="st18"
   cx="247"
   cy="-614"
   r="30"
   id="circle5020"
   style="fill:#5b6770" />
	</g>
	<polyline
   class="st22"
   points="246,-614 437,-481 625,-554  "
   id="polyline5024"
   style="fill:none;stroke:#5b6770;stroke-width:18;stroke-miterlimit:10" />
</symbol>
<symbol
   id="Charon_1_"
   viewBox="0 -1000 890 1000"
   transform="translate(-4.47,26.679)">
	<path
   class="st17"
   d="m 445,-981 c -12,0 -23.8,3.2 -34.1,9.1 L 53.2,-765.5 C 32.1,-753.3 19,-730.7 19,-706.4 v 412.8 c 0,24.3 13.1,46.9 34.1,59.1 l 357.8,206.3 c 10.4,6 22.2,9.1 34.1,9.1 12,0 23.8,-3.2 34.1,-9.1 l 357.7,-206.4 c 21.1,-12.1 34.1,-34.8 34.1,-59.1 v -412.8 c 0,-24.3 -13.1,-46.9 -34.1,-59.1 L 479.1,-971.8 c -10.3,-6 -22.1,-9.2 -34.1,-9.2 z"
   id="path5027"
   inkscape:connector-curvature="0"
   style="fill:#8fa2b0" />
	<path
   class="st18"
   d="m 445,-38 c 8.5,0 17,-2.2 24.6,-6.6 L 827.3,-251 c 15.2,-8.8 24.6,-25 24.6,-42.6 v -412.8 c 0,-17.6 -9.4,-33.8 -24.6,-42.6 L 469.6,-955.4 c -7.6,-4.4 -16.1,-6.6 -24.6,-6.6 -8.5,0 -17,2.2 -24.6,6.6 L 62.7,-749 c -15.3,8.8 -24.7,25 -24.7,42.6 v 412.8 c 0,17.6 9.4,33.8 24.6,42.6 l 357.8,206.4 c 7.6,4.4 16.1,6.6 24.6,6.6 m 0,38 C 429.7,0 414.6,-4 401.4,-11.7 L 43.6,-218.1 C 16.7,-233.6 0,-262.5 0,-293.6 v -412.8 c 0,-31.1 16.7,-60 43.6,-75.5 l 357.7,-206.4 c 13.3,-7.6 28.3,-11.7 43.6,-11.7 15.3,0 30.4,4 43.6,11.7 l 357.7,206.4 c 26.9,15.5 43.6,44.5 43.6,75.5 v 412.8 c 0,31.1 -16.7,60 -43.6,75.5 L 488.6,-11.7 C 475.4,-4 460.3,0 445,0 Z"
   id="path5029"
   inkscape:connector-curvature="0"
   style="fill:#5b6770" />
	<g
   id="g5043">
		<g
   id="g5035">
			<path
   class="st23"
   d="m 447.6,-690.9 c -19.6,0 -28.7,7.9 -43,21.9 -13.9,13.5 -31.2,30.3 -63.7,30.3 -32.3,0 -49.4,-16.9 -63.2,-30.6 -13.5,-13.4 -22.8,-21.6 -41.6,-21.6 -10.4,0 -18.5,2.5 -26.5,8 l -0.2,0.1 -0.6,0.4 c -0.3,0.3 -0.7,0.5 -1,0.8 -39.9,31.7 -60.1,86.4 -61,88.7 l -3.8,10.6 66.1,8.5 23.7,94.1 c -1.7,3.7 -4.8,10.3 -7.5,17.5 -8.3,21.7 -7.2,29.8 -5.3,34.5 5.3,12.8 38.7,38.7 54.8,49.7 -2.1,9.5 -1.1,21.4 2.8,31.4 -4.9,-1.2 -10.1,-3 -14.6,-4.6 -4.3,-1.5 -8,-2.7 -11.2,-3.5 l -19.7,-4.8 9.7,17.8 c 7.4,13.5 20.8,24.9 38.8,33 14,6.3 30.7,10.3 44.4,10.8 0.3,0 0.7,0 1,0 25.5,0 69,-33.5 73.9,-37.4 l 9.7,-7.6 -10.2,-6.9 c -0.1,-0.1 -7.7,-5.3 -19.5,-14.7 -0.8,-12.9 -3.5,-23.4 -7.2,-31.8 l 12.3,15.2 c 1.3,1.8 2.6,3.5 3.8,5 l 7,8.6 0.1,-0.1 74.7,92.1 c 2.6,3.2 6.2,5.1 10.2,5.5 0.5,0 1,0.1 1.4,0.1 3.5,0 6.9,-1.3 9.6,-3.5 6.2,-5.3 7.1,-14.7 2,-21 l -79.7,-98.3 c 14.6,-26.6 14.4,-55.1 -0.7,-82.8 -11.8,-21.7 -28.7,-35.1 -29.4,-35.7 l -2.9,-2.2 -3.6,0.4 c -0.9,0.1 -7.7,0.9 -21.4,5.7 6.1,-16.8 14.7,-32.5 22.2,-44.5 l 392.5,50.6 -3,-12.7 c -0.2,-1 -6.1,-25.2 -28.1,-55.6 -20,-27.7 -57.8,-66.3 -124.6,-92.8 l -5.2,-2.1 -4.2,3.8 c -11.9,10.9 -27.5,22 -53.6,22 -33.1,0 -50.5,-17.2 -64.5,-31 -13,-13.2 -22.1,-21.3 -40,-21.3 z m -99.4,264.4 3,3.7 c -1.6,-1.1 -3.2,-2.1 -4.8,-2.9 z"
   id="path5031"
   inkscape:connector-curvature="0"
   style="fill:#f1f1f2" />
			<path
   class="st18"
   d="m 482.4,-278.8 c 1.4,0 2.7,-0.5 3.8,-1.4 v 0 c 2.5,-2.1 2.9,-5.9 0.8,-8.5 l -83.6,-103.2 c 39.3,-61.9 -24.7,-112.3 -24.7,-112.3 0,0 -11.1,1.1 -36.2,11.8 6,-25.9 19.6,-50.9 31.6,-69.3 l 385.1,49.7 c 0,0 -21.9,-92.4 -147.2,-142 -13.1,12 -31,24.3 -59.6,24.3 -36.8,0 -56.4,-19.4 -70.8,-33.6 -12.7,-12.6 -19.5,-18.6 -33.9,-18.6 -16.2,0 -23.3,6.3 -36.7,19.3 -14.3,13.9 -33.8,32.9 -70,32.9 -36,0 -55.4,-19.2 -69.5,-33.2 -13,-12.9 -19.9,-19 -35.2,-19 -9,0 -15.2,2.1 -21.3,6.4 -0.4,0.3 -0.9,0.7 -1.3,1 -38.4,30.5 -58.1,84.7 -58.1,84.7 l 61,7.9 26,103.2 c 0,0 -18.5,36.9 -14,47.6 4.4,10.7 43.6,41.3 57.2,49.5 -5.9,11.4 -2.2,36.5 9.6,44.7 -2.1,0.7 -4.5,1.1 -7,1.1 -12.6,0 -29.5,-7.8 -38.4,-9.9 14.3,26.2 52.8,38.4 75.7,39.1 0.2,0 0.5,0 0.7,0 23.1,0 68.3,-35.4 68.3,-35.4 0,0 -9.2,-6.3 -23.3,-17.7 -1.5,-53.9 -38,-61.6 -38,-61.6 l 3.3,-9.6 14.3,-6.5 41.5,51.2 c 1.2,1.7 2.4,3.3 3.6,4.7 0,0 0.1,-0.1 0.1,-0.1 l 81.5,100.6 c 1,1.3 2.5,2 4.1,2.2 0.2,0 0.4,0 0.6,0 M 362.3,-442.9 c 0,0 0.1,0.3 0.4,1 l -0.7,-0.9 0.3,-0.1 m 120.1,182.1 c -0.7,0 -1.5,0 -2.3,-0.1 -6.5,-0.6 -12.3,-3.7 -16.4,-8.8 l -51.5,-63.5 -6.7,5.2 c -0.5,0.4 -12.2,9.6 -27.1,18.8 -22,13.8 -39.2,20.5 -52.4,20.5 -0.4,0 -0.9,0 -1.3,0 -26.4,-0.9 -72.3,-14.5 -90.9,-48.5 l -19.4,-35.6 39.5,9.5 c 3.4,0.8 7.2,2.1 11.3,3.5 -0.6,-4.8 -0.6,-9.5 -0.2,-13.9 -7.1,-5.1 -15.4,-11.5 -23.1,-17.9 -25.5,-21.2 -28.9,-29.2 -30.3,-32.7 -3.9,-9.3 -2.3,-21.6 5.2,-41.2 2.2,-5.8 4.6,-11.3 6.4,-15.2 l -21.2,-84.9 -48.8,-6.3 -22.3,-2.9 7.7,-21.1 c 0.9,-2.4 21.9,-59.3 63.8,-92.6 0.4,-0.3 0.8,-0.6 1.1,-0.9 l 0.4,-0.3 0.4,-0.3 0.4,-0.3 c 9.5,-6.6 19.3,-9.6 31.6,-9.6 23.4,0 34.8,11.2 47.9,24.2 13.2,13.1 28.2,28 56.8,28 28.8,0 44,-14.8 57.4,-27.8 13.5,-13.1 25.1,-24.4 49.3,-24.4 22.5,0 33.7,11 46.6,23.8 13.5,13.3 28.7,28.4 58.1,28.4 23,0 36.9,-9.9 47.5,-19.6 l 8.3,-7.6 10.5,4.2 c 30.2,12 57.3,27.4 80.4,45.8 18.7,14.9 34.9,31.7 48.1,50.1 23,31.8 29.3,57.7 29.5,58.8 l 6,25.3 -25.8,-3.3 -373.8,-48.2 c -4.3,7.1 -8,14.2 -11.3,21 2.7,-0.6 4.3,-0.8 5,-0.8 l 7.2,-0.7 5.7,4.5 c 0.8,0.6 19.1,15.2 31.8,38.5 7.8,14.3 12,29 12.5,43.7 0.5,14.4 -2.5,28.6 -9.1,42.4 l 76,93.8 c 8.2,10.1 6.8,25.2 -3.2,33.6 l -1,0.8 -0.4,0.2 c -3.9,2.8 -8.9,4.4 -13.9,4.4 z"
   id="path5033"
   inkscape:connector-curvature="0"
   style="fill:#5b6770" />
		</g>
		<g
   id="g5041">
			<path
   class="st23"
   d="m 656.7,-727.8 c -35.7,0 -54.6,18.9 -68.4,32.7 -11.7,11.7 -19.5,19.5 -36,19.5 -17.9,0 -26.1,-8.1 -38.5,-20.3 -14.4,-14.2 -32.3,-31.9 -66.2,-31.9 -35.5,0 -53.9,17.9 -68.7,32.3 -12.3,12 -20.5,19.9 -38,19.9 -17.1,0 -25.1,-7.9 -37.2,-19.9 -14.5,-14.4 -32.6,-32.3 -67.5,-32.3 -35,0 -53.3,17.9 -68,32.3 -12.2,12 -20.3,19.9 -37.4,19.9 -11.7,0 -21.3,9.5 -21.3,21.3 0,11.7 9.5,21.3 21.3,21.3 34.6,0 52.7,-17.8 67.2,-32.1 12.4,-12.1 20.5,-20.1 38.2,-20.1 17.4,0 25.4,8 37.6,20 14.5,14.3 32.5,32.2 67.2,32.2 34.8,0 53,-17.7 67.6,-31.9 12.5,-12.2 20.8,-20.3 39.1,-20.3 16.5,0 24.4,7.8 36.3,19.6 14.7,14.5 33,32.6 68.4,32.6 34.2,0 51.9,-17.7 66.1,-32 12.2,-12.2 20.2,-20.2 38.3,-20.2 17.5,0 25.6,7.9 38,19.9 14.8,14.4 33.2,32.3 68.7,32.3 11.7,0 21.3,-9.5 21.3,-21.3 0,-11.7 -9.5,-21.3 -21.3,-21.3 -18.2,0 -26.5,-8.1 -39.1,-20.3 -14.7,-14.1 -32.9,-31.9 -67.7,-31.9 z"
   id="path5037"
   inkscape:connector-curvature="0"
   style="fill:#f1f1f2" />
			<path
   class="st18"
   d="m 763.4,-642 c 6.8,0 12.3,-5.5 12.3,-12.3 0,-6.8 -5.5,-12.3 -12.3,-12.3 -21.9,0 -32.2,-10.1 -45.3,-22.8 -14.2,-13.8 -30.2,-29.4 -61.4,-29.4 -31.9,0 -48.6,16.7 -62,30.1 -12.4,12.4 -22.1,22.1 -42.4,22.1 -21.6,0 -31.9,-10.1 -44.8,-22.9 -13.9,-13.7 -29.6,-29.3 -59.9,-29.3 -31.9,0 -48.1,15.8 -62.5,29.8 -12.9,12.5 -23.1,22.4 -44.2,22.4 -20.8,0 -30.8,-9.9 -43.5,-22.5 -14.1,-13.9 -30,-29.7 -61.2,-29.7 -31.4,0 -47.5,15.8 -61.7,29.7 -12.8,12.5 -22.9,22.5 -43.7,22.5 -6.8,0 -12.3,5.5 -12.3,12.3 0,6.8 5.5,12.3 12.3,12.3 30.9,0 46.9,-15.7 60.9,-29.5 12.9,-12.7 23.1,-22.7 44.4,-22.7 21.1,0 31.1,10 43.9,22.6 14,13.9 29.9,29.6 60.8,29.6 31.1,0 47.2,-15.6 61.4,-29.4 13.1,-12.7 23.4,-22.8 45.3,-22.8 20.1,0 30.1,9.8 42.6,22.2 14.2,14.1 30.4,30 62.1,30 30.5,0 46.1,-15.6 59.8,-29.3 12.8,-12.8 22.9,-22.9 44.6,-22.9 21.1,0 31.3,9.9 44.2,22.4 14.5,14 30.8,29.8 62.6,29.8 m 0,18 c -39.2,0 -59.9,-20.1 -75,-34.8 -12.7,-12.3 -18.4,-17.4 -31.7,-17.4 -14.3,0 -19.8,5.5 -31.9,17.6 -14.6,14.6 -34.6,34.6 -72.5,34.6 -39.1,0 -59.7,-20.3 -74.7,-35.2 -12.2,-12.1 -17.7,-17 -30,-17 -14,0 -19.9,5.1 -32.8,17.7 -15,14.6 -35.5,34.5 -73.9,34.5 -38.3,0 -58.6,-20.1 -73.5,-34.8 -12.5,-12.4 -18.1,-17.4 -31.3,-17.4 -13.4,0 -19.1,5.1 -31.9,17.6 -14.8,14.6 -35.2,34.6 -73.4,34.6 -16.7,0 -30.2,-13.6 -30.2,-30.2 0,-16.6 13.6,-30.2 30.2,-30.2 13,0 18.6,-5 31.1,-17.3 15,-14.7 35.5,-34.9 74.3,-34.9 38.6,0 59,20.2 73.8,34.9 12.4,12.3 18,17.3 30.9,17.3 13.3,0 19,-5 31.7,-17.4 15.1,-14.7 35.8,-34.8 75,-34.8 37.6,0 57.8,19.9 72.5,34.5 12.8,12.6 18.5,17.7 32.2,17.7 12.2,0 17.2,-4.3 29.7,-16.9 14.1,-14.1 35.3,-35.3 74.7,-35.3 38.4,0 58.9,19.9 73.9,34.5 13,12.6 18.8,17.7 32.8,17.7 16.7,0 30.2,13.6 30.2,30.2 0,16.6 -13.5,30.2 -30.2,30.2 z"
   id="path5039"
   inkscape:connector-curvature="0"
   style="fill:#5b6770" />
		</g>
	</g>
</symbol>
<symbol
   id="Clara_1_"
   viewBox="0 -1000 890 1000"
   transform="translate(-4.47,26.679)">
	<g
   id="g5050">
		<path
   class="st0"
   d="m 445,-981 c -12,0 -23.8,3.2 -34.1,9.1 L 53.2,-765.5 C 32.1,-753.3 19,-730.7 19,-706.4 v 412.8 c 0,24.3 13.1,46.9 34.1,59.1 l 357.8,206.3 c 10.4,6 22.2,9.1 34.1,9.1 12,0 23.8,-3.2 34.1,-9.1 l 357.7,-206.4 c 21.1,-12.1 34.1,-34.8 34.1,-59.1 v -412.8 c 0,-24.3 -13.1,-46.9 -34.1,-59.1 L 479.1,-971.8 c -10.3,-6 -22.1,-9.2 -34.1,-9.2 z"
   id="path5046"
   inkscape:connector-curvature="0"
   style="fill:#80c7ee" />
		<path
   class="st1"
   d="m 445,-38 c 8.5,0 17,-2.2 24.6,-6.6 L 827.3,-251 c 15.2,-8.8 24.6,-25 24.6,-42.6 v -412.8 c 0,-17.6 -9.4,-33.8 -24.6,-42.6 L 469.6,-955.4 c -7.6,-4.4 -16.1,-6.6 -24.6,-6.6 -8.5,0 -17,2.2 -24.6,6.6 L 62.7,-749 c -15.3,8.8 -24.7,25 -24.7,42.6 v 412.8 c 0,17.6 9.4,33.8 24.6,42.6 l 357.8,206.4 c 7.6,4.4 16.1,6.6 24.6,6.6 m 0,38 C 429.7,0 414.6,-4 401.4,-11.7 L 43.6,-218.1 C 16.7,-233.6 0,-262.5 0,-293.6 v -412.8 c 0,-31.1 16.7,-60 43.6,-75.5 l 357.7,-206.4 c 13.3,-7.6 28.3,-11.7 43.6,-11.7 15.3,0 30.4,4 43.6,11.7 l 357.7,206.4 c 26.9,15.5 43.6,44.5 43.6,75.5 v 412.8 c 0,31.1 -16.7,60 -43.6,75.5 L 488.6,-11.7 C 475.4,-4 460.3,0 445,0 Z"
   id="path5048"
   inkscape:connector-curvature="0"
   style="fill:#047cc0" />
	</g>
	<g
   id="g5078">
		<g
   id="g5076">
			<g
   id="g5056">
				<path
   class="st23"
   d="m 201.1,-661.7 c -3,0 -5.8,1.3 -7.7,3.6 -8.1,9.7 -15.6,19.7 -22.2,30 -6.8,10.5 -12.7,22 -17.6,34 -4.6,11.3 -8.3,24.1 -10.9,37.8 -2.6,13.7 -3.9,28.1 -3.9,42.9 0,16.1 1.4,31 4.1,44.1 2.7,13.1 6.2,25.3 10.6,36.2 4.7,11.9 10.6,23.3 17.4,33.9 6.6,10.3 14.2,20.5 22.5,30.4 1.9,2.3 4.7,3.6 7.7,3.6 h 50.5 c 5.5,0 10,-4.5 10,-10 v -2.7 c 0,-2.8 -1.2,-5.5 -3.3,-7.4 -7.1,-6.5 -14,-13.9 -20.5,-22.1 -6.5,-8.2 -12.7,-18 -18.3,-29.1 -5.3,-10.6 -9.7,-22.5 -13.1,-35.5 -3.3,-12.9 -5,-26.8 -5,-41.5 0,-15.3 1.6,-29.3 4.9,-41.6 3.3,-12.5 7.7,-24.4 13.3,-35.5 5.3,-10.5 11.5,-20.2 18.2,-28.8 6.7,-8.5 13.6,-16 20.6,-22.2 2.1,-1.9 3.3,-4.6 3.3,-7.4 v -2.7 c 0,-5.5 -4.5,-10 -10,-10 z"
   id="path5052"
   inkscape:connector-curvature="0"
   style="fill:#f1f1f2" />
				<path
   class="st1"
   d="m 251.6,-374.2 c 0.6,0 1,-0.4 1,-1 v -2.7 c 0,-0.3 -0.1,-0.5 -0.3,-0.7 -7.5,-6.8 -14.7,-14.5 -21.5,-23.1 -6.9,-8.7 -13.4,-18.9 -19.3,-30.6 -5.7,-11.2 -10.3,-23.7 -13.8,-37.4 -3.5,-13.7 -5.3,-28.3 -5.3,-43.7 0,-16.1 1.7,-30.8 5.2,-43.9 3.4,-13.1 8.1,-25.5 13.9,-37.2 5.7,-11.1 12.1,-21.3 19.2,-30.4 7,-9 14.2,-16.8 21.7,-23.4 0.2,-0.2 0.3,-0.5 0.3,-0.7 v -2.7 c 0,-0.6 -0.4,-1 -1,-1 h -50.5 c -0.3,0 -0.6,0.1 -0.8,0.4 -7.9,9.4 -15.1,19.1 -21.5,29.1 -6.5,10.1 -12.1,20.9 -16.8,32.6 -4.4,10.9 -7.9,22.9 -10.4,36.1 -2.5,13.2 -3.8,26.9 -3.8,41.2 0,15.6 1.3,29.7 3.9,42.3 2.6,12.6 6,24.2 10.1,34.7 4.5,11.4 10.1,22.2 16.6,32.3 6.5,10 13.8,19.9 21.8,29.6 0.2,0.2 0.5,0.4 0.8,0.4 h 50.5 m 0,17.8 h -50.5 c -5.6,0 -11,-2.5 -14.6,-6.8 -8.5,-10.2 -16.3,-20.8 -23.2,-31.3 -7.2,-11.1 -13.3,-23 -18.2,-35.5 -4.5,-11.4 -8.2,-24.1 -11,-37.7 -2.8,-13.8 -4.3,-29.2 -4.3,-45.9 0,-15.3 1.4,-30.3 4.1,-44.5 2.7,-14.3 6.6,-27.6 11.4,-39.6 5.1,-12.5 11.3,-24.5 18.4,-35.5 6.8,-10.6 14.5,-20.9 22.8,-30.9 3.6,-4.3 8.9,-6.8 14.6,-6.8 h 50.5 c 10.5,0 19,8.5 19,19 v 2.7 c 0,5.4 -2.3,10.6 -6.3,14.2 -6.6,5.9 -13.2,13 -19.5,21.1 -6.4,8.1 -12.2,17.3 -17.3,27.4 -5.3,10.5 -9.5,21.8 -12.6,33.7 -3,11.6 -4.6,24.8 -4.6,39.3 0,13.9 1.6,27.1 4.7,39.2 3.2,12.4 7.4,23.7 12.4,33.7 5.4,10.6 11.2,19.9 17.4,27.6 6.2,7.8 12.8,14.9 19.5,21 4,3.6 6.2,8.7 6.2,14.1 v 2.7 c 0.1,10.3 -8.4,18.8 -18.9,18.8 z"
   id="path5054"
   inkscape:connector-curvature="0"
   style="fill:#047cc0" />
			</g>
			<g
   id="g5062">
				<path
   class="st23"
   d="m 280.5,-530.1 c -5.5,0 -10,4.5 -10,10 v 37.3 c 0,5.5 4.5,10 10,10 h 91.8 c 5.5,0 10,-4.5 10,-10 v -37.3 c 0,-5.5 -4.5,-10 -10,-10 z"
   id="path5058"
   inkscape:connector-curvature="0"
   style="fill:#f1f1f2" />
				<path
   class="st1"
   d="m 372.3,-481.8 c 0.6,0 1,-0.4 1,-1 v -37.3 c 0,-0.6 -0.4,-1 -1,-1 h -91.8 c -0.6,0 -1,0.4 -1,1 v 37.3 c 0,0.6 0.4,1 1,1 h 91.8 m 0,18 h -91.8 c -10.5,0 -19,-8.5 -19,-19 v -37.3 c 0,-10.5 8.5,-19 19,-19 h 91.8 c 10.5,0 19,8.5 19,19 v 37.3 c 0,10.5 -8.5,19 -19,19 z"
   id="path5060"
   inkscape:connector-curvature="0"
   style="fill:#047cc0" />
			</g>
			<g
   id="g5068">
				<path
   class="st23"
   d="m 419.7,-600.9 c -5.5,0 -10,4.5 -10,10 v 36.9 c 0,4.1 2.4,7.7 6.2,9.3 l 106.2,43.4 -106.1,43.2 c -3.8,1.5 -6.2,5.2 -6.2,9.3 v 36.9 c 0,5.5 4.5,10 10,10 1.3,0 2.6,-0.3 3.8,-0.8 l 179.7,-74.6 c 3.7,-1.6 6.2,-5.2 6.2,-9.2 v -29.8 c 0,-4.1 -2.4,-7.7 -6.2,-9.2 l -179.7,-74.6 c -1.2,-0.6 -2.5,-0.8 -3.9,-0.8 z"
   id="path5064"
   inkscape:connector-curvature="0"
   style="fill:#f1f1f2" />
				<path
   class="st1"
   d="m 419.7,-410.9 c 0.1,0 0.3,0 0.4,-0.1 l 179.7,-74.6 c 0.4,-0.2 0.6,-0.5 0.6,-0.9 v -29.8 c 0,-0.4 -0.2,-0.8 -0.6,-0.9 l -179.7,-74.6 c -0.1,-0.1 -0.3,-0.1 -0.4,-0.1 -0.5,0 -1,0.4 -1,1 v 36.9 c 0,0.4 0.2,0.8 0.6,0.9 l 124.3,50.8 c 0.8,0.3 0.8,1.5 0,1.9 l -124.3,50.8 c -0.4,0.2 -0.6,0.5 -0.6,0.9 v 36.9 c 0,0.5 0.5,0.9 1,0.9 m 0,18 c -10.5,0 -19,-8.5 -19,-19 v -36.9 c 0,-7.8 4.6,-14.7 11.8,-17.6 l 85.8,-35 -85.8,-35 c -7.2,-2.9 -11.8,-9.8 -11.8,-17.6 v -36.9 c 0,-10.5 8.5,-19 19,-19 2.5,0 5,0.5 7.3,1.5 l 179.7,74.6 c 7.1,3 11.7,9.8 11.7,17.5 v 29.8 c 0,7.7 -4.6,14.6 -11.7,17.6 L 427,-394.4 c -2.3,1 -4.7,1.5 -7.3,1.5 z"
   id="path5066"
   inkscape:connector-curvature="0"
   style="fill:#047cc0" />
			</g>
			<g
   id="g5074">
				<path
   class="st23"
   d="m 638.3,-661.7 c -5.5,0 -10,4.5 -10,10 v 2.7 c 0,2.8 1.2,5.6 3.3,7.5 7,6.3 14,13.7 20.7,22.2 6.7,8.5 12.8,18.2 18.1,28.8 5.6,11.1 10,23 13.3,35.5 3.2,12.3 4.9,26.3 4.9,41.6 0,14.6 -1.7,28.6 -5,41.5 -3.4,13 -7.8,25 -13.1,35.6 -5.6,11.1 -11.8,20.9 -18.3,29.1 -6.5,8.2 -13.4,15.6 -20.5,22.1 -2.1,1.9 -3.3,4.6 -3.3,7.4 v 2.7 c 0,5.5 4.5,10 10,10 h 50.5 c 3,0 5.8,-1.3 7.7,-3.6 8.3,-9.9 15.8,-20.2 22.5,-30.4 6.8,-10.6 12.7,-22 17.4,-33.9 4.3,-10.9 7.9,-23.1 10.6,-36.2 2.7,-13.2 4.1,-28 4.1,-44.1 0,-14.7 -1.3,-29.1 -3.9,-42.8 -2.6,-13.7 -6.3,-26.4 -10.9,-37.9 -4.9,-12.1 -10.8,-23.5 -17.6,-34 -6.6,-10.2 -14.1,-20.3 -22.2,-30 -1.9,-2.3 -4.7,-3.6 -7.7,-3.6 h -50.6 z"
   id="path5070"
   inkscape:connector-curvature="0"
   style="fill:#f1f1f2" />
				<path
   class="st1"
   d="m 688.7,-374.2 c 0.3,0 0.6,-0.1 0.8,-0.4 8.1,-9.7 15.4,-19.6 21.8,-29.6 6.6,-10.1 12.1,-20.9 16.6,-32.3 4.2,-10.5 7.5,-22 10.1,-34.7 2.6,-12.6 3.9,-26.8 3.9,-42.3 0,-14.2 -1.3,-28 -3.8,-41.1 -2.5,-13.2 -6,-25.2 -10.4,-36.2 -4.7,-11.6 -10.3,-22.5 -16.8,-32.6 -6.4,-10 -13.6,-19.7 -21.5,-29.1 -0.2,-0.2 -0.5,-0.4 -0.8,-0.4 h -50.5 c -0.6,0 -1,0.4 -1,1 v 2.7 c 0,0.3 0.1,0.5 0.3,0.7 7.4,6.6 14.7,14.4 21.7,23.3 7.2,9.1 13.5,19.2 19.1,30.4 5.9,11.7 10.5,24.1 13.9,37.2 3.4,13.1 5.2,27.7 5.2,43.9 0,15.5 -1.8,30.1 -5.3,43.7 -3.5,13.7 -8.1,26.1 -13.8,37.4 -5.9,11.7 -12.4,21.9 -19.3,30.6 -6.8,8.6 -14,16.3 -21.5,23.1 -0.2,0.2 -0.3,0.5 -0.3,0.7 v 2.7 c 0,0.6 0.4,1 1,1 h 50.6 m 0,18.3 h -50.5 c -10.5,0 -19,-8.5 -19,-19 v -2.7 c 0,-5.4 2.3,-10.5 6.2,-14.1 6.8,-6.1 13.3,-13.2 19.5,-21 6.1,-7.7 12,-17 17.4,-27.6 5.1,-10 9.2,-21.4 12.4,-33.7 3.1,-12.1 4.7,-25.3 4.7,-39.2 0,-14.5 -1.5,-27.7 -4.6,-39.3 -3.1,-11.9 -7.4,-23.2 -12.6,-33.7 v 0 0 c -5,-10.1 -10.7,-19.2 -17.1,-27.3 -6.4,-8.1 -13,-15.2 -19.6,-21.1 -4,-3.6 -6.3,-8.8 -6.3,-14.2 v -2.7 c 0,-10.5 8.5,-19 19,-19 h 50.5 c 5.6,0 10.9,2.5 14.6,6.8 8.3,10 16,20.3 22.8,30.9 7.1,11 13.3,22.9 18.4,35.5 4.9,12 8.7,25.3 11.4,39.6 2.7,14.2 4.1,29.2 4.1,44.5 0,16.7 -1.4,32.2 -4.3,45.9 -2.8,13.6 -6.5,26.3 -11,37.7 -4.9,12.5 -11.1,24.4 -18.2,35.5 -6.9,10.6 -14.6,21.1 -23.1,31.3 -3.7,4.4 -9,6.9 -14.7,6.9 z"
   id="path5072"
   inkscape:connector-curvature="0"
   style="fill:#047cc0" />
			</g>
		</g>
	</g>
</symbol>
<symbol
   id="F12_1_"
   viewBox="0 -1000 890 1000"
   transform="translate(-4.47,26.679)">
	<g
   id="g5085">
		<path
   class="st24"
   d="m 445,-981 c -12,0 -23.8,3.2 -34.1,9.1 L 53.2,-765.5 C 32.1,-753.3 19,-730.7 19,-706.4 v 412.8 c 0,24.3 13.1,46.9 34.1,59.1 l 357.8,206.3 c 10.4,6 22.2,9.1 34.1,9.1 12,0 23.8,-3.2 34.1,-9.1 l 357.7,-206.4 c 21.1,-12.1 34.1,-34.8 34.1,-59.1 v -412.8 c 0,-24.3 -13.1,-46.9 -34.1,-59.1 L 479.1,-971.8 c -10.3,-6 -22.1,-9.2 -34.1,-9.2 z"
   id="path5081"
   inkscape:connector-curvature="0"
   style="fill:#a4d183" />
		<path
   class="st25"
   d="m 445,-38 c 8.5,0 17,-2.2 24.6,-6.6 L 827.3,-251 c 15.2,-8.8 24.6,-25 24.6,-42.6 v -412.8 c 0,-17.6 -9.4,-33.8 -24.6,-42.6 L 469.6,-955.4 c -7.6,-4.4 -16.1,-6.6 -24.6,-6.6 -8.5,0 -17,2.2 -24.6,6.6 L 62.7,-749 c -15.3,8.8 -24.7,25 -24.7,42.6 v 412.8 c 0,17.6 9.4,33.8 24.6,42.6 l 357.8,206.4 c 7.6,4.4 16.1,6.6 24.6,6.6 m 0,38 C 429.7,0 414.6,-4 401.4,-11.7 L 43.6,-218.1 C 16.7,-233.6 0,-262.5 0,-293.6 v -412.8 c 0,-31.1 16.7,-60 43.6,-75.5 l 357.7,-206.4 c 13.3,-7.6 28.3,-11.7 43.6,-11.7 15.3,0 30.4,4 43.6,11.7 l 357.7,206.4 c 26.9,15.5 43.6,44.5 43.6,75.5 v 412.8 c 0,31.1 -16.7,60 -43.6,75.5 L 488.6,-11.7 C 475.4,-4 460.3,0 445,0 Z"
   id="path5083"
   inkscape:connector-curvature="0"
   style="fill:#5c9a43" />
	</g>
	<g
   id="g5095">
		<path
   class="st23"
   d="M 675.2,-669.9 H 213.8 c -10.1,0 -18.3,8.2 -18.3,18.3 v 298.8 c 0,10.1 8.2,18.3 18.3,18.3 h 461.4 c 10.1,0 18.3,-8.2 18.3,-18.3 v -298.8 c 0,-10.1 -8.2,-18.3 -18.3,-18.3 z"
   id="path5087"
   inkscape:connector-curvature="0"
   style="fill:#f1f1f2" />
		<g
   id="g5091">
			<polygon
   class="st25"
   points="261,-591.4 303.5,-591.4 375.8,-519.2 303,-446.4 260.5,-446.4 333.2,-519.2 "
   id="polygon5089"
   style="fill:#5c9a43" />
		</g>
		<path
   class="st25"
   d="M 675.2,-313.1 H 213.8 c -21.9,0 -39.7,-17.8 -39.7,-39.7 v -298.8 c 0,-21.9 17.8,-39.7 39.7,-39.7 h 461.4 c 21.9,0 39.7,17.8 39.7,39.7 v 298.8 c 0,21.9 -17.8,39.7 -39.7,39.7 z m 0,-356.8 H 213.8 c -10.1,0 -18.3,8.2 -18.3,18.3 v 274.5 h 498 v -274.5 c 0,-10.1 -8.2,-18.3 -18.3,-18.3 z"
   id="path5093"
   inkscape:connector-curvature="0"
   style="fill:#5c9a43" />
	</g>
</symbol>
<symbol
   id="GC_Stats_1_"
   viewBox="0 -1000 890 1000"
   transform="translate(-4.47,26.679)">
	<path
   class="st26"
   d="m 445,-981 c -12,0 -23.8,3.2 -34.1,9.1 L 53.2,-765.5 C 32.1,-753.3 19,-730.7 19,-706.4 v 412.8 c 0,24.3 13.1,46.9 34.1,59.1 l 357.8,206.3 c 10.4,6 22.2,9.1 34.1,9.1 12,0 23.8,-3.2 34.1,-9.1 l 357.7,-206.4 c 21.1,-12.1 34.1,-34.8 34.1,-59.1 v -412.8 c 0,-24.3 -13.1,-46.9 -34.1,-59.1 L 479.1,-971.8 c -10.3,-6 -22.1,-9.2 -34.1,-9.2 z"
   id="path5098"
   inkscape:connector-curvature="0"
   style="fill:#f05b62" />
	<path
   class="st27"
   d="m 445,-38 c 8.5,0 17,-2.2 24.6,-6.6 L 827.3,-251 c 15.2,-8.8 24.6,-25 24.6,-42.6 v -412.8 c 0,-17.6 -9.4,-33.8 -24.6,-42.6 L 469.6,-955.4 c -7.6,-4.4 -16.1,-6.6 -24.6,-6.6 -8.5,0 -17,2.2 -24.6,6.6 L 62.7,-749 c -15.3,8.8 -24.7,25 -24.7,42.6 v 412.8 c 0,17.6 9.4,33.8 24.6,42.6 l 357.8,206.4 c 7.6,4.4 16.1,6.6 24.6,6.6 m 0,38 C 429.7,0 414.6,-4 401.4,-11.7 L 43.6,-218.1 C 16.7,-233.6 0,-262.5 0,-293.6 v -412.8 c 0,-31.1 16.7,-60 43.6,-75.5 l 357.7,-206.4 c 13.3,-7.6 28.3,-11.7 43.6,-11.7 15.3,0 30.4,4 43.6,11.7 l 357.7,206.4 c 26.9,15.5 43.6,44.5 43.6,75.5 v 412.8 c 0,31.1 -16.7,60 -43.6,75.5 L 488.6,-11.7 C 475.4,-4 460.3,0 445,0 Z"
   id="path5100"
   inkscape:connector-curvature="0"
   style="fill:#a91e23" />
	<path
   class="st28"
   d="m 520,-387 14.5,-90.6 -93.5,-228.7 206.9,228.7 -59.8,90.6 H 293.8 l -59.8,-90.6 207,-228.7 -93.6,228.7 14.5,90.6 H 520 l 14.5,-90.6 -93.5,-228.7 -93.6,228.7 14.5,90.6 c 52.4,0 105.7,0 158.1,0 z"
   id="path5102"
   inkscape:connector-curvature="0"
   style="fill:#f1f1f2;stroke:#a91e23;stroke-width:18;stroke-linecap:round;stroke-linejoin:round;stroke-miterlimit:10" />
	<line
   class="st28"
   x1="647.90002"
   y1="-477.60001"
   x2="234"
   y2="-477.60001"
   id="line5104"
   style="fill:#f1f1f2;stroke:#a91e23;stroke-width:18;stroke-linecap:round;stroke-linejoin:round;stroke-miterlimit:10" />
	<g
   id="g5126">
		<g
   id="g5114">
			<g
   id="g5112">
				<path
   class="st29"
   d="m 438.3,-796.9 c 0.3,0 0.6,0 0.9,0 164.3,0 297.5,133.1 297.5,297.3 0,83.3 -34.3,158.6 -89.6,212.6"
   id="path5106"
   inkscape:connector-curvature="0"
   style="fill:none;stroke:#a91e23;stroke-width:18.79840088;stroke-linecap:round;stroke-miterlimit:10" />
				<g
   id="g5110">
					<polygon
   class="st27"
   points="598.9,-351.7 710.6,-237.3 597.6,-238.7 "
   id="polygon5108"
   style="fill:#a91e23" />
				</g>
			</g>
		</g>
		<g
   id="g5124">
			<g
   id="g5122">
				<path
   class="st29"
   d="m 438.3,-202.3 c -163.9,-0.5 -296.6,-133.4 -296.6,-297.3 0,-80.9 32.3,-154.2 84.8,-207.8"
   id="path5116"
   inkscape:connector-curvature="0"
   style="fill:none;stroke:#a91e23;stroke-width:18.79840088;stroke-linecap:round;stroke-miterlimit:10" />
				<g
   id="g5120">
					<polygon
   class="st27"
   points="276,-643.9 161.7,-755.7 274.8,-756.9 "
   id="polygon5118"
   style="fill:#a91e23" />
				</g>
			</g>
		</g>
	</g>
</symbol>
<symbol
   id="Scrimp_1_"
   viewBox="0 -1000 890 1000"
   transform="translate(-4.47,26.679)">
	<path
   class="st24"
   d="m 445,-981 c -12,0 -23.8,3.2 -34.1,9.1 L 53.2,-765.5 C 32.1,-753.3 19,-730.7 19,-706.4 v 412.8 c 0,24.3 13.1,46.9 34.1,59.1 l 357.8,206.3 c 10.4,6 22.2,9.1 34.1,9.1 12,0 23.8,-3.2 34.1,-9.1 l 357.7,-206.4 c 21.1,-12.1 34.1,-34.8 34.1,-59.1 v -412.8 c 0,-24.3 -13.1,-46.9 -34.1,-59.1 L 479.1,-971.8 c -10.3,-6 -22.1,-9.2 -34.1,-9.2 z"
   id="path5129"
   inkscape:connector-curvature="0"
   style="fill:#a4d183" />
	<path
   class="st25"
   d="m 445,-38 c 8.5,0 17,-2.2 24.6,-6.6 L 827.3,-251 c 15.2,-8.8 24.6,-25 24.6,-42.6 v -412.8 c 0,-17.6 -9.4,-33.8 -24.6,-42.6 L 469.6,-955.4 c -7.6,-4.4 -16.1,-6.6 -24.6,-6.6 -8.5,0 -17,2.2 -24.6,6.6 L 62.7,-749 c -15.3,8.8 -24.7,25 -24.7,42.6 v 412.8 c 0,17.6 9.4,33.8 24.6,42.6 l 357.8,206.4 c 7.6,4.4 16.1,6.6 24.6,6.6 m 0,38 C 429.7,0 414.6,-4 401.4,-11.7 L 43.6,-218.1 C 16.7,-233.6 0,-262.5 0,-293.6 v -412.8 c 0,-31.1 16.7,-60 43.6,-75.5 l 357.7,-206.4 c 13.3,-7.6 28.3,-11.7 43.6,-11.7 15.3,0 30.4,4 43.6,11.7 l 357.7,206.4 c 26.9,15.5 43.6,44.5 43.6,75.5 v 412.8 c 0,31.1 -16.7,60 -43.6,75.5 L 488.6,-11.7 C 475.4,-4 460.3,0 445,0 Z"
   id="path5131"
   inkscape:connector-curvature="0"
   style="fill:#5c9a43" />
	<polygon
   class="st23"
   points="126.3,-537.4 594.9,-232.8 569.8,-790.3 406,-699.5 315.9,-725.4 294,-637.7 "
   id="polygon5133"
   style="fill:#f1f1f2" />
	<path
   class="st25"
   d="m 601.6,-224.5 c -1.6,0.9 -3.4,1.4 -5.2,1.4 -2,0 -4,-0.6 -5.7,-1.7 L 119.3,-530 c -3,-2 -4.8,-5.4 -4.8,-9 0.1,-3.6 2.1,-7 5.2,-8.8 l 162.6,-93.6 20.9,-85.8 c 0.7,-2.8 2.5,-5.2 4.9,-6.6 1.6,-0.9 3.4,-1.4 5.2,-1.4 0.9,0 1.8,0.1 3,0.4 l 84.8,25 162.5,-93.5 c 1.6,-0.9 3.4,-1.4 5.2,-1.4 0.9,0 1.8,0.1 2.7,0.4 0.8,0.2 1.6,0.5 2.3,0.9 3.2,1.7 5.2,5 5.4,8.6 l 27.2,552.6 0.4,8.1 c 0.2,4 -1.8,7.7 -5.2,9.6 z M 144.9,-538.3 554.6,-273 288.6,-621 Z m 249.8,-151.6 -73.8,-21.8 -18.2,74.7 248.9,325.8 z m 164.5,-86.8 -143.7,82.7 167.7,404.5 z"
   id="path5135"
   inkscape:connector-curvature="0"
   style="fill:#5c9a43" />
</symbol>
<symbol
   id="Terra_1_"
   viewBox="0 -1000 890 1000"
   transform="translate(-4.47,26.679)">
	<path
   class="st0"
   d="m 445,-981 c -12,0 -23.8,3.2 -34.1,9.1 L 53.2,-765.5 C 32.1,-753.3 19,-730.7 19,-706.4 v 412.8 c 0,24.3 13.1,46.9 34.1,59.1 l 357.8,206.3 c 10.4,6 22.2,9.1 34.1,9.1 12,0 23.8,-3.2 34.1,-9.1 l 357.7,-206.4 c 21.1,-12.1 34.1,-34.8 34.1,-59.1 v -412.8 c 0,-24.3 -13.1,-46.9 -34.1,-59.1 L 479.1,-971.8 c -10.3,-6 -22.1,-9.2 -34.1,-9.2 z"
   id="path5138"
   inkscape:connector-curvature="0"
   style="fill:#80c7ee" />
	<path
   class="st1"
   d="m 445,-38 c 8.5,0 17,-2.2 24.6,-6.6 L 827.3,-251 c 15.2,-8.8 24.6,-25 24.6,-42.6 v -412.8 c 0,-17.6 -9.4,-33.8 -24.6,-42.6 L 469.6,-955.4 c -7.6,-4.4 -16.1,-6.6 -24.6,-6.6 -8.5,0 -17,2.2 -24.6,6.6 L 62.7,-749 c -15.3,8.8 -24.7,25 -24.7,42.6 v 412.8 c 0,17.6 9.4,33.8 24.6,42.6 l 357.8,206.4 c 7.6,4.4 16.1,6.6 24.6,6.6 m 0,38 C 429.7,0 414.6,-4 401.4,-11.7 L 43.6,-218.1 C 16.7,-233.6 0,-262.5 0,-293.6 v -412.8 c 0,-31.1 16.7,-60 43.6,-75.5 l 357.7,-206.4 c 13.3,-7.6 28.3,-11.7 43.6,-11.7 15.3,0 30.4,4 43.6,11.7 l 357.7,206.4 c 26.9,15.5 43.6,44.5 43.6,75.5 v 412.8 c 0,31.1 -16.7,60 -43.6,75.5 L 488.6,-11.7 C 475.4,-4 460.3,0 445,0 Z"
   id="path5140"
   inkscape:connector-curvature="0"
   style="fill:#047cc0" />
	<pattern
   id="SVGID_10_"
   xlink:href="#New_Pattern_Swatch_3"
   patternTransform="matrix(6.2683 0 0 6.264 40681.1172 43422.9805)">
	</pattern>
	<circle
   class="st30"
   cx="664.40002"
   cy="-319.29999"
   id="ellipse5143"
   r="59.5"
   style="fill:#f1f1f2;stroke:url(#SVGID_10_);stroke-width:18;stroke-miterlimit:10" />
	<ellipse
   class="st31"
   cx="442.70001"
   cy="-510.10001"
   rx="192"
   ry="191.89999"
   id="ellipse5145"
   style="fill:none;stroke:#231f20;stroke-width:9.22910023;stroke-miterlimit:10" />
	<g
   id="g5152">
		<path
   class="st23"
   d="m 172.6,-310.3 c -7.4,-8.5 -16.4,-13.9 -25.9,-16.2 9.5,-2.4 18.6,-7.7 26,-16.2 7.4,-8.5 12.1,-18.8 14.2,-29.8 2.1,10.9 6.8,21.3 14.1,29.7 7.4,8.5 16.5,13.9 26,16.2 v 0 c -9.5,2.4 -18.6,7.7 -26,16.2 -7.4,8.5 -12.1,18.9 -14.2,29.8 v 0 c -2.1,-10.8 -6.8,-21.2 -14.2,-29.7 z"
   id="path5147"
   inkscape:connector-curvature="0"
   style="fill:#f1f1f2" />
		<pattern
   id="SVGID_11_"
   xlink:href="#New_Pattern_Swatch_3"
   patternTransform="matrix(6.2683 0 0 6.264 40681.1172 43422.9805)">
		</pattern>
		<path
   class="st32"
   d="m 186.8,-303.9 c 2.3,-4.2 5,-8.1 8.1,-11.6 3.7,-4.3 7.9,-8 12.5,-11 -4.6,-3 -8.8,-6.7 -12.5,-11 -3.1,-3.5 -5.8,-7.4 -8.1,-11.6 -2.3,4.2 -5,8.1 -8.1,11.6 -3.7,4.3 -7.9,8 -12.5,11 4.5,3 8.7,6.7 12.4,10.9 3.1,3.6 5.9,7.5 8.2,11.7 m 0,23.4 c -2,-10.9 -6.8,-21.3 -14.2,-29.8 -7.4,-8.5 -16.4,-13.9 -25.9,-16.2 9.5,-2.4 18.6,-7.7 26,-16.2 7.4,-8.5 12.1,-18.8 14.2,-29.8 2.1,10.9 6.8,21.3 14.1,29.7 7.4,8.5 16.5,13.9 26,16.2 v 0 c -9.5,2.4 -18.6,7.7 -26,16.2 -7.4,8.5 -12.1,19 -14.2,29.9 z"
   id="path5150"
   inkscape:connector-curvature="0"
   style="fill:url(#SVGID_11_)" />
	</g>
	<g
   id="g5159">
		<path
   class="st23"
   d="m 684.5,-681.1 c -7.4,-8.5 -16.4,-13.9 -25.9,-16.2 9.5,-2.4 18.6,-7.7 26,-16.2 7.4,-8.5 12.1,-18.8 14.2,-29.8 2.1,10.9 6.8,21.3 14.1,29.7 7.4,8.5 16.5,13.9 26,16.2 v 0 c -9.5,2.4 -18.6,7.7 -26,16.2 -7.4,8.5 -12.1,18.9 -14.2,29.8 v 0 c -2.1,-10.8 -6.8,-21.2 -14.2,-29.7 z"
   id="path5154"
   inkscape:connector-curvature="0"
   style="fill:#f1f1f2" />
		<pattern
   id="SVGID_12_"
   xlink:href="#New_Pattern_Swatch_3"
   patternTransform="matrix(6.2683 0 0 6.264 40681.1172 43422.9805)">
		</pattern>
		<path
   class="st33"
   d="m 698.6,-674.7 c 2.3,-4.2 5,-8.1 8.1,-11.6 3.7,-4.3 7.9,-8 12.5,-11 -4.6,-3 -8.8,-6.7 -12.5,-11 -3.1,-3.5 -5.8,-7.4 -8.1,-11.6 -2.3,4.2 -5,8.1 -8.1,11.6 -3.7,4.3 -7.9,8 -12.5,11 4.5,3 8.7,6.7 12.4,10.9 3.2,3.6 5.9,7.6 8.2,11.7 m 0,23.5 c -2,-10.9 -6.8,-21.3 -14.2,-29.8 -7.4,-8.5 -16.4,-13.9 -25.9,-16.2 9.5,-2.4 18.6,-7.7 26,-16.2 7.4,-8.5 12.1,-18.8 14.2,-29.8 2.1,10.9 6.8,21.3 14.1,29.7 7.4,8.5 16.5,13.9 26,16.2 v 0 c -9.5,2.4 -18.6,7.7 -26,16.2 -7.4,8.5 -12.1,18.9 -14.2,29.9 z"
   id="path5157"
   inkscape:connector-curvature="0"
   style="fill:url(#SVGID_12_)" />
	</g>
	<path
   class="st34"
   d="m 278.2,-609.1 c -7.4,-10.7 -14.3,-21 -20.4,-31.1 -35.5,-58.2 -33.5,-81.2 -30,-84.7 1.1,-1.1 3.9,-1.7 7.6,-1.7 9.4,0 38,4.5 99.8,46.3 2.8,1.9 5.6,3.8 8.5,5.8 -26.8,16.1 -49.3,38.6 -65.5,65.4 z"
   id="path5161"
   inkscape:connector-curvature="0"
   style="fill:none" />
	<path
   class="st34"
   d="m 657.7,-295.3 c -1.1,1.1 -3.9,1.7 -7.6,1.7 -9.4,0 -38,-4.5 -99.8,-46.3 -2.8,-1.9 -5.6,-3.8 -8.5,-5.8 26.8,-16.2 49.3,-38.6 65.4,-65.4 7.4,10.7 14.3,21 20.4,31.1 35.6,58.1 33.6,81.2 30.1,84.7 z"
   id="path5163"
   inkscape:connector-curvature="0"
   style="fill:none" />
	<pattern
   id="SVGID_13_"
   xlink:href="#New_Pattern_Swatch_3"
   patternTransform="matrix(6.2683 0 0 6.264 40681.1172 43422.9805)">
	</pattern>
	<path
   class="st35"
   d="m 616.1,-427.4 c -2.7,5.6 -5.6,11 -8.8,16.3 -16.2,26.8 -38.7,49.3 -65.4,65.4 -5.3,3.2 -10.7,6.1 -16.3,8.8 -25.1,12 -53.1,18.7 -82.8,18.7 -106.1,0 -192,-85.9 -192,-191.9 0,-29.6 6.7,-57.7 18.7,-82.7 2.7,-5.6 5.6,-11 8.8,-16.3 16.2,-26.8 38.7,-49.3 65.4,-65.4 5.3,-3.2 10.7,-6.1 16.3,-8.8 25.1,-12 53.1,-18.7 82.8,-18.7 106.1,0 192,85.9 192,191.9 0,29.6 -6.8,57.7 -18.7,82.7 z"
   id="path5166"
   inkscape:connector-curvature="0"
   style="fill:#f1f1f2;stroke:url(#SVGID_13_);stroke-width:18;stroke-miterlimit:10" />
	<pattern
   id="SVGID_14_"
   xlink:href="#New_Pattern_Swatch_3"
   patternTransform="matrix(6.2683 0 0 6.264 40686.6875 43423.0508)">
	</pattern>
	<path
   class="st36"
   d="m 654.6,-326 c -4.5,-13 -12.7,-30.7 -26.9,-54 -6.1,-10 -12.9,-20.4 -20.4,-31.1 -31.2,-44.6 -73.3,-94 -121.4,-142.1 -47.4,-47.4 -97.5,-90.1 -142.2,-121.3 -2.8,-2 -5.7,-3.9 -8.5,-5.8 -61.8,-41.8 -90.4,-46.3 -99.8,-46.3 -3.6,0 -6.5,0.6 -7.6,1.7 -3.5,3.5 -5.5,26.6 30,84.7 6.1,10 12.9,20.4 20.4,31.1 -3.2,5.3 -6.1,10.7 -8.8,16.3 -49.7,-69.4 -72.2,-125 -53.4,-143.8 4.5,-4.5 11,-6.6 19.3,-6.6 26.7,0 71.7,22.1 124.6,59.9 42.5,30.4 90.1,70.9 137.6,118.4 47.5,47.5 88.1,95.1 118.5,137.5 26.7,37.3 45.6,70.7 54.4,96.4 -4.4,4.4 -10,5.9 -15.8,5 z"
   id="path5169"
   inkscape:connector-curvature="0"
   style="fill:url(#SVGID_14_)" />
</symbol>
<symbol
   id="jwala_1_"
   viewBox="0 -1000 890 1000"
   transform="translate(-4.47,26.679)">
	<g
   id="g5176">
		<path
   class="st11"
   d="m 445,-981 c -12,0 -23.8,3.2 -34.1,9.1 L 53.2,-765.5 C 32.1,-753.3 19,-730.7 19,-706.4 v 412.8 c 0,24.3 13.1,46.9 34.1,59.1 l 357.8,206.3 c 10.4,6 22.2,9.1 34.1,9.1 12,0 23.8,-3.2 34.1,-9.1 l 357.7,-206.4 c 21.1,-12.1 34.1,-34.8 34.1,-59.1 v -412.8 c 0,-24.3 -13.1,-46.9 -34.1,-59.1 L 479.1,-971.8 c -10.3,-6 -22.1,-9.2 -34.1,-9.2 z"
   id="path5172"
   inkscape:connector-curvature="0"
   style="fill:#faaf66" />
		<path
   class="st12"
   d="m 445,-38 c 8.5,0 17,-2.2 24.6,-6.6 L 827.3,-251 c 15.2,-8.8 24.6,-25 24.6,-42.6 v -412.8 c 0,-17.6 -9.4,-33.8 -24.6,-42.6 L 469.6,-955.4 c -7.6,-4.4 -16.1,-6.6 -24.6,-6.6 -8.5,0 -17,2.2 -24.6,6.6 L 62.7,-749 c -15.3,8.8 -24.7,25 -24.7,42.6 v 412.8 c 0,17.6 9.4,33.8 24.6,42.6 l 357.8,206.4 c 7.6,4.4 16.1,6.6 24.6,6.6 m 0,38 C 429.7,0 414.6,-4 401.4,-11.7 L 43.6,-218.1 C 16.7,-233.6 0,-262.5 0,-293.6 v -412.8 c 0,-31.1 16.7,-60 43.6,-75.5 l 357.7,-206.4 c 13.3,-7.6 28.3,-11.7 43.6,-11.7 15.3,0 30.4,4 43.6,11.7 l 357.7,206.4 c 26.9,15.5 43.6,44.5 43.6,75.5 v 412.8 c 0,31.1 -16.7,60 -43.6,75.5 L 488.6,-11.7 C 475.4,-4 460.3,0 445,0 Z"
   id="path5174"
   inkscape:connector-curvature="0"
   style="fill:#eb6124" />
	</g>
	<path
   class="st13"
   d="m 649.6,-440.8 c -3.8,-21.7 -15,-42.9 -26.2,-55 -4.2,115 -50.9,178.9 -78.9,217 -1.2,-13.3 -2,-22.5 -3.2,-35.6 -35.1,80.3 -108.2,121.4 -148.8,145.3 29.2,-93.3 7.1,-187.9 -30,-239.1 -7.8,21.3 -30.3,55.9 -45.6,71.4 6.9,-85.6 -70.2,-117.7 -74.8,-214 -9.1,15.2 -17.7,30.8 -21.5,54 -59.4,-124.4 23.8,-279.4 127.7,-304.6 -11.7,43.6 17.2,78.7 29.9,96.3 35.5,49.1 89.5,52.3 129.6,7 25.5,-28.8 52.9,-58.5 46,-103.8 187.4,95 157.6,294.8 95.8,361.1 z M 341.3,-701.1 c -18.9,-7.9 -43.5,7.7 -54.9,35 -11.5,27.3 -5.5,55.8 13.4,63.8 18.9,7.9 43.5,-7.7 54.9,-35 11.5,-27.3 5.4,-55.9 -13.4,-63.8 z m 60.3,80.4 c -22.5,-4.9 -46.2,16.2 -52.9,47.1 -6.7,30.9 6,59.9 28.5,64.8 22.5,4.9 46.2,-16.2 52.9,-47.1 6.8,-30.9 -6,-59.9 -28.5,-64.8 z m 85.1,0 c -22.5,4.9 -35.3,33.9 -28.5,64.8 6.7,30.9 30.4,52 52.9,47.1 22.5,-4.9 35.3,-33.9 28.5,-64.8 -6.8,-30.9 -30.4,-52 -52.9,-47.1 z M 604,-660.9 c -11.5,-27.3 -36.1,-43 -54.9,-35 -18.9,7.9 -24.9,36.5 -13.4,63.8 11.5,27.3 36.1,43 54.9,35 18.9,-8 24.9,-36.5 13.4,-63.8 z"
   id="path5178"
   inkscape:connector-curvature="0"
   style="fill:#f1f1f2;stroke:#eb6124;stroke-width:18;stroke-linecap:square;stroke-miterlimit:10" />
</symbol>
<pattern
   y="1099"
   width="6.1"
   height="6.1"
   patternUnits="userSpaceOnUse"
   id="New_Pattern_Swatch_3"
   viewBox="0 -6.1 6.1 6.1">
	<g
   id="g5185">
		<rect
   y="-6.1"
   class="st34"
   width="6.1"
   height="6.1"
   id="rect5181" />
		<rect
   y="-6.1"
   class="st1"
   width="6.1"
   height="6.1"
   id="rect5183" />
	</g>
</pattern>
<g
   id="Concepts"
   class="st37"
   style="display:none"
   transform="translate(-4.47,26.679)">
	<g
   id="JWALA">
	</g>
	<g
   id="Knife_Tar">
	</g>
	<g
   id="CucumebrForgeConcepts">
	</g>
</g>
<g
   id="Complete"
   transform="translate(-4.47,26.679)">
	<g
   id="Terra"
   class="st37"
   style="display:none">
		
			<use
   xlink:href="#Terra_1_"
   width="890"
   height="1000"
   y="-1000"
   transform="matrix(0.098,0,0,-0.098,6.82806,3.6145421)"
   style="display:inline;overflow:visible"
   id="use5192"
   x="0" />
	</g>
	<g
   id="Scrimp"
   class="st37"
   style="display:none">
		
			<use
   xlink:href="#Scrimp_1_"
   width="890"
   height="1000"
   y="-1000"
   transform="matrix(0.098,0,0,-0.098,6.82806,3.6145421)"
   style="display:inline;overflow:visible"
   id="use5195"
   x="0" />
	</g>
	<g
   id="jwala"
   class="st37"
   style="display:none">
		
			<use
   xlink:href="#jwala_1_"
   width="890"
   height="1000"
   y="-1000"
   transform="matrix(0.098,0,0,-0.098,6.82806,3.6145421)"
   style="display:inline;overflow:visible"
   id="use5198"
   x="0" />
	</g>
	<g
   id="GC_Stats"
   class="st37"
   style="display:none">
		
			<use
   xlink:href="#GC_Stats_1_"
   width="890"
   height="1000"
   y="-1000"
   transform="matrix(0.098,0,0,-0.098,6.82806,3.6145421)"
   style="display:inline;overflow:visible"
   id="use5201"
   x="0" />
	</g>
	<g
   id="F12"
   class="st37"
   style="display:none">
		
			<use
   xlink:href="#F12_1_"
   width="890"
   height="1000"
   y="-1000"
   transform="matrix(0.098,0,0,-0.098,6.82806,3.6145421)"
   style="display:inline;overflow:visible"
   id="use5204"
   x="0" />
	</g>
	<g
   id="CucumberForge">
		<g
   id="g5235"
   transform="matrix(1.2529287,0,0,1.2529287,6.3311781,-25.028929)">
			<g
   id="g5233">
				<path
   class="st24"
   d="m 50.012078,100.84367 c -1.298202,0 -2.48822,-0.32455 -3.570054,-0.973635 L 8.4696317,78.016978 C 6.1977798,76.718777 4.8995781,74.33874 4.8995781,71.74234 V 28.036221 c 0,-2.5964 1.4063851,-4.976436 3.5700536,-6.274638 L 46.442024,-0.09147452 c 1.081834,-0.64910071 2.380036,-0.97365108 3.570054,-0.97365108 1.298202,0 2.48822,0.32455037 3.570054,0.97365108 L 91.554524,21.761583 c 2.271852,1.298202 3.570054,3.678238 3.570054,6.274638 v 43.814302 c 0,2.596401 -1.406385,4.976437 -3.570054,6.274639 L 53.582132,99.870035 c -1.081834,0.649085 -2.271852,0.973635 -3.570054,0.973635 z"
   id="path5207"
   inkscape:connector-curvature="0"
   style="fill:#343b45;fill-opacity:1;stroke-width:1.08183432" />
				
				<path
   class="st25"
   d="m 50,4.7 c 0.8,0 1.7,0.2 2.4,0.6 l 35.1,20.2 c 1.5,0.9 2.4,2.5 2.4,4.2 v 40.5 c 0,1.7 -0.9,3.3 -2.4,4.2 L 52.4,94.6 C 51.7,95 50.8,95.2 50,95.2 49.2,95.2 48.3,95 47.6,94.6 L 12.5,74.4 C 11,73.5 10.1,71.9 10.1,70.2 V 29.8 c 0,-1.7 0.9,-3.3 2.4,-4.2 L 47.6,5.4 C 48.3,4.9 49.2,4.7 50,4.7 M 50,1 c -1.5,0 -3,0.4 -4.3,1.1 l -35,20.3 c -2.6,1.5 -4.3,4.4 -4.3,7.4 v 40.5 c 0,3 1.6,5.9 4.3,7.4 l 35.1,20.2 c 1.2,0.7 2.7,1.1 4.2,1.1 1.5,0 3,-0.4 4.3,-1.1 L 89.4,77.7 c 2.6,-1.5 4.3,-4.4 4.3,-7.4 V 29.8 c 0,-3 -1.6,-5.9 -4.3,-7.4 L 54.3,2.1 C 53,1.4 51.5,1 50,1 Z"
   id="path5211"
   style="opacity:0.98999999;fill:#ffffff;fill-opacity:1"
   inkscape:connector-curvature="0" />
				
				<g
   id="g5231">
					
					
					
					
					
					
					
					
				</g>
			</g>
		</g>
	<g
   id="g5418"
   clip-path="url(#clipPath5420)"
   transform="matrix(-1.0853745,0.62593324,-0.62593324,-1.0853745,150.9352,58.776688)"><g
     inkscape:label="Clip"
     id="g5416"><path
       transform="matrix(0.28932726,-0.02870235,0.02870235,0.28932726,34.479136,16.118085)"
       inkscape:transform-center-y="-1.5018851"
       inkscape:transform-center-x="0.0023708069"
       d="m 45.797936,12.681139 7.370755,16.332462 7.370755,16.332461 -17.829705,-1.78297 -17.829704,-1.78297 10.45895,-14.549492 z"
       inkscape:randomized="0"
       inkscape:rounded="0"
       inkscape:flatsided="false"
       sodipodi:arg2="-0.42393012"
       sodipodi:arg1="-1.4711277"
       sodipodi:r2="10.345326"
       sodipodi:r1="20.690653"
       sodipodi:cy="33.269108"
       sodipodi:cx="43.73914"
       sodipodi:sides="3"
       id="path5356"
       style="opacity:0.98999999;fill:#f5ffff;fill-opacity:1;stroke:#343b45;stroke-width:3.43941092;stroke-miterlimit:4;stroke-dasharray:none;stroke-opacity:1;paint-order:stroke fill markers"
       sodipodi:type="star" /><rect
       y="27.492098"
       x="42.876797"
       height="20.362082"
       width="10.369868"
       id="rect5360"
       style="opacity:0.98999999;fill:#f5ffff;fill-opacity:1;stroke:#343b45;stroke-width:1;stroke-miterlimit:4;stroke-dasharray:none;stroke-opacity:1;paint-order:stroke fill markers" /><rect
       y="47.854179"
       x="42.876797"
       height="20.362082"
       width="10.369868"
       id="rect5360-3"
       style="opacity:0.98999999;fill:#f5ffff;fill-opacity:1;stroke:#343b45;stroke-width:1;stroke-miterlimit:4;stroke-dasharray:none;stroke-opacity:1;paint-order:stroke fill markers" /><path
       sodipodi:nodetypes="cccccc"
       inkscape:connector-curvature="0"
       id="path5377"
       d="m 35.112087,67.962426 -1.116237,3.685798 h 5.730256 L 42.27673,68.216263 42.26512,57.725478 Z"
       style="fill:#f5ffff;fill-opacity:1;stroke:#343b45;stroke-width:1px;stroke-linecap:butt;stroke-linejoin:miter;stroke-opacity:1;paint-order:stroke fill markers" /><path
       sodipodi:nodetypes="cccccc"
       inkscape:connector-curvature="0"
       id="path5377-7"
       d="m 60.910826,67.962426 1.116237,3.685798 h -5.730256 l -2.550624,-3.431961 0.01161,-10.490785 z"
       style="fill:#f5ffff;fill-opacity:1;stroke:#343b45;stroke-width:1px;stroke-linecap:butt;stroke-linejoin:miter;stroke-opacity:1;paint-order:stroke fill markers" /></g></g></g>
	<g
   id="Clara"
   class="st37"
   style="display:none">
		
			<use
   xlink:href="#Clara_1_"
   width="890"
   height="1000"
   y="-1000"
   transform="matrix(0.098,0,0,-0.098,6.82806,3.6145421)"
   style="display:inline;overflow:visible"
   id="use5238"
   x="0" />
	</g>
	<g
   id="Charon"
   class="st37"
   style="display:none">
		
			<use
   xlink:href="#Charon_1_"
   width="890"
   height="1000"
   y="-1000"
   transform="matrix(0.098,0,0,-0.098,6.82806,3.6145421)"
   style="display:inline;overflow:visible"
   id="use5241"
   x="0" />
	</g>
	<g
   id="Carbon"
   class="st37"
   style="display:none">
		
			<use
   xlink:href="#Carbon_1_"
   width="890"
   height="1000"
   y="-1000"
   transform="matrix(0.098,0,0,-0.098,6.82806,3.6145421)"
   style="display:inline;overflow:visible"
   id="use5244"
   x="0" />
	</g>
	<g
   id="Canadarm"
   class="st37"
   style="display:none">
		
			<use
   xlink:href="#Canadarm_1_"
   width="890"
   height="1000"
   y="-1000"
   transform="matrix(0.098,0,0,-0.098,6.82806,3.6145421)"
   style="display:inline;overflow:visible"
   id="use5247"
   x="0" />
	</g>
	<g
   id="Bunsen"
   class="st37"
   style="display:none">
		
			<use
   xlink:href="#Bunson"
   width="890"
   height="1000"
   id="Bunsen_3_"
   y="-1000"
   transform="matrix(0.098,0,0,-0.098,6.82806,3.6145421)"
   style="display:inline;overflow:visible"
   x="0" />
	</g>
	<g
   id="Beadledom"
   class="st37"
   style="display:none">
		
			<use
   xlink:href="#Beadledom_1_"
   width="890"
   height="1000"
   y="-1000"
   transform="matrix(0.098,0,0,-0.098,6.82806,3.6145421)"
   style="display:inline;overflow:visible"
   id="use5252"
   x="0" />
	</g>
</g>
<g
   id="_x5F_COPY_ME"
   class="st37"
   style="display:none"
   transform="translate(-4.47,26.679)">
	
		<use
   xlink:href="#Terra_1_"
   width="890"
   height="1000"
   y="-1000"
   transform="matrix(0.098,0,0,-0.098,6.82806,3.6145421)"
   style="display:inline;overflow:visible"
   id="use5256"
   x="0" />
</g>
<g
   id="Template"
   transform="translate(-4.47,26.679)">
	<g
   id="Grey">
	</g>
	<g
   id="Red">
	</g>
	<g
   id="Blue">
	</g>
	<g
   id="Purple">
	</g>
</g>
<g
   id="Instructions"
   transform="translate(-4.47,26.679)">
</g>
</svg>